<?xml version="1.0" encoding="UTF-8" standalone="no"?>
<svg width="16" height="16" viewBox="0 0 16 16" fill="none" xmlns="http://www.w3.org/2000/svg">
  <path d="M8 0L2 3V7.09C2 10.14 4.41 13.39 8 14C11.59 13.39 14 10.14 14 7.09V3L8 0ZM12 7.09C12 9.44 10.28 11.78 8 12.38C5.72 11.78 4 9.44 4 7.09V4.39L8 2.39L12 4.39V7.09Z" fill="#75BEFF"/>
  <path d="M8 5C7.44772 5 7 5.44772 7 6V8C7 8.55228 7.44772 9 8 9C8.55228 9 9 8.55228 9 8V6C9 5.44772 8.55228 5 8 5Z" fill="#75BEFF"/>
  <circle cx="8" cy="11" r="1" fill="#75BEFF"/>
</svg> 